#include "hUGEDriver.h"
#include <stddef.h>

static const unsigned char order_cnt = 4;

static const unsigned char P0[] = {
    DN(F_6,5,0x000),
    DN(A_4,3,0x8EF),
    DN(___,0,0x000),
    DN(As4,3,0x000),
    DN(___,0,0x8EB),
    DN(A_4,3,0x8FA),
    DN(___,0,0x8BE),
    DN(As4,3,0x000),
    DN(___,0,0x8BE),
    DN(C_5,3,0x8AF),
    DN(___,0,0x8EB),
    DN(As4,3,0x000),
    DN(___,0,0x8AF),
    DN(A_4,3,0x8BE),
    DN(___,0,0x8FA),
    DN(F_4,3,0x000),
    DN(___,0,0x000),
    DN(A_4,3,0x8EB),
    DN(___,0,0x000),
    DN(As4,3,0x8EF),
    DN(___,0,0x000),
    DN(A_4,3,0x8FE),
    DN(___,0,0x000),
    DN(C_5,3,0x000),
    DN(___,0,0x000),
    DN(C_5,3,0x8EF),
    DN(___,0,0x000),
    DN(C_5,3,0x000),
    DN(___,0,0x000),
    DN(C_5,3,0x8FE),
    DN(C_6,5,0x8FF),
    DN(___,0,0x000),
    DN(F_6,5,0x000),
    DN(A_4,3,0x8EF),
    DN(___,0,0x000),
    DN(As4,3,0x000),
    DN(___,0,0x8EB),
    DN(A_4,3,0x8FA),
    DN(___,0,0x8BE),
    DN(As4,3,0x000),
    DN(___,0,0x8BE),
    DN(C_5,3,0x8AF),
    DN(___,0,0x8EB),
    DN(As4,3,0x000),
    DN(___,0,0x8AF),
    DN(A_4,3,0x8BE),
    DN(___,0,0x8FA),
    DN(F_4,3,0x000),
    DN(___,0,0x000),
    DN(A_4,3,0x8EB),
    DN(___,0,0x000),
    DN(As4,3,0x8EF),
    DN(___,0,0x000),
    DN(A_4,3,0x8FE),
    DN(___,0,0x000),
    DN(C_5,3,0x000),
    DN(___,0,0x000),
    DN(C_5,3,0x8EF),
    DN(___,0,0x000),
    DN(C_5,3,0x000),
    DN(___,0,0x000),
    DN(C_5,3,0x8FE),
    DN(___,0,0x000),
    DN(___,0,0x000),
};
static const unsigned char P1[] = {
    DN(A_4,2,0x000),
    DN(___,0,0x000),
    DN(As4,2,0x000),
    DN(___,0,0x000),
    DN(A_4,2,0x000),
    DN(___,0,0x000),
    DN(As4,2,0x000),
    DN(___,0,0x000),
    DN(C_5,2,0x000),
    DN(___,0,0x000),
    DN(As4,2,0x000),
    DN(___,0,0x000),
    DN(A_4,2,0x000),
    DN(___,0,0x000),
    DN(F_4,2,0x000),
    DN(___,0,0x000),
    DN(A_4,2,0x000),
    DN(___,0,0x000),
    DN(As4,2,0x000),
    DN(___,0,0x000),
    DN(A_4,2,0x000),
    DN(___,0,0x000),
    DN(C_5,2,0x000),
    DN(___,0,0x000),
    DN(C_5,2,0xC01),
    DN(___,0,0x000),
    DN(C_5,2,0x000),
    DN(___,0,0x000),
    DN(C_5,2,0xC01),
    DN(___,0,0x000),
    DN(___,0,0x000),
    DN(___,0,0x000),
    DN(A_4,2,0x000),
    DN(___,0,0x000),
    DN(As4,2,0x000),
    DN(___,0,0x000),
    DN(A_4,2,0x000),
    DN(___,0,0x000),
    DN(As4,2,0x000),
    DN(___,0,0x000),
    DN(C_5,2,0x000),
    DN(___,0,0x000),
    DN(As4,2,0x000),
    DN(___,0,0x000),
    DN(A_4,2,0x000),
    DN(___,0,0x000),
    DN(F_4,2,0x000),
    DN(___,0,0x000),
    DN(A_4,2,0x000),
    DN(___,0,0x000),
    DN(As4,2,0x000),
    DN(___,0,0x000),
    DN(A_4,2,0x000),
    DN(___,0,0x000),
    DN(C_5,2,0x000),
    DN(___,0,0x000),
    DN(C_5,2,0xC01),
    DN(___,0,0x000),
    DN(C_5,2,0x000),
    DN(___,0,0x000),
    DN(C_5,2,0xC01),
    DN(___,0,0x000),
    DN(___,0,0x000),
    DN(___,0,0x000),
};
static const unsigned char P2[] = {
    DN(As3,2,0x000),
    DN(___,0,0xC07),
    DN(As3,2,0x000),
    DN(___,0,0xC03),
    DN(As4,1,0x000),
    DN(___,0,0x000),
    DN(___,0,0x000),
    DN(___,0,0x000),
    DN(F_6,3,0x000),
    DN(___,0,0xC03),
    DN(F_6,3,0x000),
    DN(___,0,0xC03),
    DN(C_6,3,0x000),
    DN(___,0,0xC03),
    DN(C_6,3,0x000),
    DN(___,0,0xC03),
    DN(___,0,0x000),
    DN(___,0,0x000),
    DN(___,0,0xE00),
    DN(___,0,0x000),
    DN(As3,2,0x000),
    DN(___,0,0xC07),
    DN(As3,2,0x000),
    DN(___,0,0xC07),
    DN(F_4,2,0x000),
    DN(___,0,0xC07),
    DN(D_4,2,0x000),
    DN(___,0,0xC07),
    DN(C_4,2,0x000),
    DN(___,0,0x000),
    DN(___,0,0xC07),
    DN(___,0,0x000),
    DN(As3,2,0x000),
    DN(___,0,0xC07),
    DN(As3,2,0x000),
    DN(___,0,0xC03),
    DN(As4,1,0x000),
    DN(___,0,0x000),
    DN(___,0,0x000),
    DN(___,0,0x000),
    DN(F_6,3,0x000),
    DN(___,0,0xC03),
    DN(F_6,3,0x000),
    DN(___,0,0xC03),
    DN(C_6,3,0x000),
    DN(___,0,0xC03),
    DN(C_6,3,0x000),
    DN(___,0,0xC03),
    DN(___,0,0x000),
    DN(___,0,0x000),
    DN(___,0,0xE00),
    DN(___,0,0x000),
    DN(As3,2,0x000),
    DN(___,0,0xC07),
    DN(As3,2,0x000),
    DN(___,0,0xC07),
    DN(F_4,2,0x000),
    DN(___,0,0xC07),
    DN(D_4,2,0x000),
    DN(___,0,0xC07),
    DN(C_4,2,0x000),
    DN(___,0,0x000),
    DN(___,0,0xC07),
    DN(___,0,0x000),
};
static const unsigned char P3[] = {
    DN(C_6,1,0x000),
    DN(___,0,0x000),
    DN(C_8,2,0x000),
    DN(___,0,0x000),
    DN(Gs7,2,0x000),
    DN(___,0,0x000),
    DN(C_8,2,0x000),
    DN(___,0,0x000),
    DN(C_7,3,0x000),
    DN(___,0,0x000),
    DN(C_8,2,0x000),
    DN(___,0,0x000),
    DN(Gs7,2,0x000),
    DN(___,0,0x000),
    DN(C_8,2,0x000),
    DN(___,0,0x000),
    DN(___,0,0x000),
    DN(___,0,0x000),
    DN(C_8,2,0x000),
    DN(___,0,0x000),
    DN(Gs7,2,0x000),
    DN(___,0,0x000),
    DN(C_8,2,0x000),
    DN(___,0,0x000),
    DN(C_7,3,0x000),
    DN(___,0,0x000),
    DN(C_8,2,0x000),
    DN(___,0,0x000),
    DN(Gs7,2,0x000),
    DN(___,0,0x000),
    DN(C_8,2,0x000),
    DN(___,0,0x000),
    DN(C_6,1,0x000),
    DN(___,0,0x000),
    DN(C_8,2,0x000),
    DN(___,0,0x000),
    DN(Gs7,2,0x000),
    DN(___,0,0x000),
    DN(C_8,2,0x000),
    DN(___,0,0x000),
    DN(C_7,3,0x000),
    DN(___,0,0x000),
    DN(C_8,2,0x000),
    DN(___,0,0x000),
    DN(Gs7,2,0x000),
    DN(___,0,0x000),
    DN(C_8,2,0x000),
    DN(___,0,0x000),
    DN(___,0,0x000),
    DN(___,0,0x000),
    DN(C_8,2,0x000),
    DN(___,0,0x000),
    DN(Gs7,2,0x000),
    DN(___,0,0x000),
    DN(C_8,2,0x000),
    DN(___,0,0x000),
    DN(C_7,3,0x000),
    DN(___,0,0x000),
    DN(C_8,2,0x000),
    DN(___,0,0x000),
    DN(Gs7,2,0x000),
    DN(___,0,0x000),
    DN(C_8,2,0x000),
    DN(___,0,0x000),
};
static const unsigned char P4[] = {
    DN(C_6,5,0x8FF),
    DN(A_4,3,0x8EF),
    DN(___,0,0x000),
    DN(As4,3,0x000),
    DN(___,0,0x8EB),
    DN(A_4,3,0x8FA),
    DN(___,0,0x8BE),
    DN(As4,3,0x000),
    DN(___,0,0x8BE),
    DN(C_5,3,0x8AF),
    DN(___,0,0x8EB),
    DN(As4,3,0x000),
    DN(___,0,0x8AF),
    DN(A_4,3,0x8BE),
    DN(___,0,0x8FA),
    DN(F_4,3,0x000),
    DN(___,0,0x000),
    DN(A_4,3,0x8EB),
    DN(___,0,0x000),
    DN(As4,3,0x8EF),
    DN(___,0,0x000),
    DN(A_4,3,0x8FE),
    DN(___,0,0x000),
    DN(C_5,3,0x000),
    DN(___,0,0x000),
    DN(C_5,3,0x8EF),
    DN(___,0,0x000),
    DN(C_5,3,0x000),
    DN(___,0,0x000),
    DN(C_5,3,0x8FE),
    DN(A_5,5,0x8FF),
    DN(___,0,0x000),
    DN(C_6,5,0x000),
    DN(A_4,3,0x8EF),
    DN(___,0,0x000),
    DN(As4,3,0x000),
    DN(___,0,0x8EB),
    DN(A_4,3,0x8FA),
    DN(___,0,0x8BE),
    DN(As4,3,0x000),
    DN(___,0,0x8BE),
    DN(C_5,3,0x8AF),
    DN(___,0,0x8EB),
    DN(As4,3,0x000),
    DN(___,0,0x8AF),
    DN(A_4,3,0x8BE),
    DN(___,0,0x8FA),
    DN(F_4,3,0x000),
    DN(___,0,0x000),
    DN(A_4,3,0x8EB),
    DN(___,0,0x000),
    DN(As4,3,0x8EF),
    DN(___,0,0x000),
    DN(A_4,3,0x8FE),
    DN(___,0,0x000),
    DN(C_5,3,0x000),
    DN(___,0,0x000),
    DN(C_5,3,0x8EF),
    DN(___,0,0x000),
    DN(C_5,3,0x000),
    DN(___,0,0x000),
    DN(C_5,3,0x8FE),
    DN(___,0,0x000),
    DN(___,0,0x000),
};
static const unsigned char P6[] = {
    DN(F_3,2,0x000),
    DN(___,0,0xC07),
    DN(F_3,2,0x000),
    DN(___,0,0xC03),
    DN(F_4,1,0x000),
    DN(___,0,0x000),
    DN(___,0,0x000),
    DN(___,0,0x000),
    DN(A_6,3,0x000),
    DN(___,0,0xC03),
    DN(A_6,3,0x000),
    DN(___,0,0xC03),
    DN(F_6,3,0x000),
    DN(___,0,0xC03),
    DN(F_6,3,0x000),
    DN(___,0,0xC03),
    DN(___,0,0x000),
    DN(___,0,0x000),
    DN(___,0,0xE00),
    DN(___,0,0x000),
    DN(D_4,2,0x000),
    DN(___,0,0xC07),
    DN(C_4,2,0x000),
    DN(___,0,0xC07),
    DN(D_4,2,0x000),
    DN(___,0,0xC07),
    DN(C_4,2,0x000),
    DN(___,0,0xC07),
    DN(A_3,2,0x000),
    DN(___,0,0x000),
    DN(___,0,0xC07),
    DN(___,0,0x000),
    DN(F_3,2,0x000),
    DN(___,0,0xC07),
    DN(F_3,2,0x000),
    DN(___,0,0xC03),
    DN(F_4,1,0x000),
    DN(___,0,0x000),
    DN(___,0,0x000),
    DN(___,0,0x000),
    DN(A_6,3,0x000),
    DN(___,0,0xC03),
    DN(A_6,3,0x000),
    DN(___,0,0xC03),
    DN(F_6,3,0x000),
    DN(___,0,0xC03),
    DN(F_6,3,0x000),
    DN(___,0,0xC03),
    DN(___,0,0x000),
    DN(___,0,0x000),
    DN(___,0,0xE00),
    DN(___,0,0x000),
    DN(D_4,2,0x000),
    DN(___,0,0xC07),
    DN(C_4,2,0x000),
    DN(___,0,0xC07),
    DN(D_4,2,0x000),
    DN(___,0,0xC07),
    DN(C_4,2,0x000),
    DN(___,0,0xC07),
    DN(A_3,2,0x000),
    DN(___,0,0x000),
    DN(___,0,0xC07),
    DN(___,0,0x000),
};

static const unsigned char itNoiseSP1[] = {
    DN(___,0,0x000),
    DN(36,0,0x000),
    DN(35,0,0x000),
    DN(34,0,0x000),
    DN(33,0,0x000),
    DN(32,0,0x000),
    DN(31,7,0x000),
    DN(___,0,0x000),
    DN(___,0,0x000),
    DN(___,0,0x000),
    DN(___,0,0x000),
    DN(___,0,0x000),
    DN(___,0,0x000),
    DN(___,0,0x000),
    DN(___,0,0x000),
    DN(___,0,0x000),
    DN(___,0,0x000),
    DN(___,0,0x000),
    DN(___,0,0x000),
    DN(___,0,0x000),
    DN(___,0,0x000),
    DN(___,0,0x000),
    DN(___,0,0x000),
    DN(___,0,0x000),
    DN(___,0,0x000),
    DN(___,0,0x000),
    DN(___,0,0x000),
    DN(___,0,0x000),
    DN(___,0,0x000),
    DN(___,0,0x000),
    DN(___,0,0x000),
    DN(___,1,0x000),
};
static const unsigned char itNoiseSP3[] = {
    DN(___,0,0x000),
    DN(36,0,0x000),
    DN(37,0,0x000),
    DN(38,0,0x000),
    DN(38,0,0x000),
    DN(39,0,0x000),
    DN(37,7,0x000),
    DN(___,0,0x000),
    DN(___,0,0x000),
    DN(___,0,0x000),
    DN(___,0,0x000),
    DN(___,0,0x000),
    DN(___,0,0x000),
    DN(___,0,0x000),
    DN(___,0,0x000),
    DN(___,0,0x000),
    DN(___,0,0x000),
    DN(___,0,0x000),
    DN(___,0,0x000),
    DN(___,0,0x000),
    DN(___,0,0x000),
    DN(___,0,0x000),
    DN(___,0,0x000),
    DN(___,0,0x000),
    DN(___,0,0x000),
    DN(___,0,0x000),
    DN(___,0,0x000),
    DN(___,0,0x000),
    DN(___,0,0x000),
    DN(___,0,0x000),
    DN(___,0,0x000),
    DN(___,1,0x000),
};
static const unsigned char* const order1[] = {P0,P4};
static const unsigned char* const order2[] = {P1,P1};
static const unsigned char* const order3[] = {P2,P6};
static const unsigned char* const order4[] = {P3,P3};

static const hUGEDutyInstr_t duty_instruments[] = {
    {8,128,193,0,128},
    {8,64,28,0,128},
    {8,64,15,0,128},
    {8,192,166,0,128},
    {8,128,81,0,128},
};
static const hUGEWaveInstr_t wave_instruments[] = {
    {0,96,0,0,128},
    {0,32,1,0,128},
    {0,64,2,0,128},
};
static const hUGENoiseInstr_t noise_instruments[] = {
    {97,itNoiseSP1,128,0,0},
    {113,0,118,0,0},
    {177,itNoiseSP3,0,0,0},
};

static const unsigned char waves[] = {
    122,205,219,117,33,19,104,189,220,151,65,1,71,156,221,184,
    17,18,59,205,221,221,203,147,52,86,172,221,221,204,186,134,
    254,220,186,152,118,84,50,16,18,52,86,120,154,188,222,255,
};

const hUGESong_t beatscribe_unused_song = {7, &order_cnt, order1, order2, order3,order4, duty_instruments, wave_instruments, noise_instruments, NULL, waves};
